Coordinates
version=1
nRows=9
nColumns=36
inDegrees=yes

Units are S.I. units (second, meters, Newtons, ...)
If the header above contains a line with 'inDegrees', this indicates whether rotational values are in degrees (yes) or radians (no).

endheader
time	pelvis_tilt	pelvis_list	pelvis_rotation	pelvis_tx	pelvis_ty	pelvis_tz	hip_flexion_r	hip_adduction_r	hip_rotation_r	knee_angle_r	knee_angle_r_beta	ankle_angle_r	subtalar_angle_r	mtp_angle_r	hip_flexion_l	hip_adduction_l	hip_rotation_l	knee_angle_l	knee_angle_l_beta	ankle_angle_l	subtalar_angle_l	mtp_angle_l	lumbar_extension	lumbar_bending	lumbar_rotation	arm_flex_r	arm_add_r	arm_rot_r	elbow_flex_r	pro_sup_r	arm_flex_l	arm_add_l	arm_rot_l	elbow_flex_l	pro_sup_l
      3.20000000	    -21.48868427	     -2.13824584	     -1.35057203	     -0.26258758	      0.80031365	     -0.57708810	     62.58918908	     -8.74069556	     -3.57229350	     62.76479794	      1.09545238	     20.96114243	     -8.65913796	     -7.49999987	     63.82043835	    -12.47315511	      0.90391676	     62.76230832	      1.09540893	     20.96637374	     -4.20551055	     -7.49999987	    -19.17261841	      1.49835712	     -2.33384913	     42.99556311	    -22.50499552	      6.83987671	    128.82622953	     98.57310806	     36.33231701	    -20.55233311	      3.31288792	    130.15069118	     92.88419299
      3.21000000	    -22.02179931	     -2.39817380	     -1.42228956	     -0.26550184	      0.79230145	     -0.57709351	     64.22609833	     -8.80107404	     -3.77058287	     64.36935060	      1.12345711	     22.18375490	     -7.52514317	     -7.49999987	     65.74740999	    -12.84636185	      1.31345361	     64.62232326	      1.12787231	     22.15392919	     -2.97232019	     -7.49999987	    -19.52793160	      1.82897493	     -2.02158625	     44.63101880	    -22.75728851	      6.82234471	    129.18015336	     98.62772415	     37.86486572	    -20.56684150	      3.33008638	    130.59703747	     92.90547110
      3.22000000	    -22.38984631	     -2.44947290	     -1.47056854	     -0.26824064	      0.78451089	     -0.57713360	     65.76860246	     -9.02238426	     -3.85290474	     66.02073560	      1.15227921	     22.61762177	     -7.51041888	     -7.49999987	     67.39645467	    -13.04376100	      1.48008475	     66.36186430	      1.15823303	     22.60014948	     -3.01032039	     -7.49999987	    -20.05599670	      1.91884350	     -1.81520895	     46.21652417	    -22.89733909	      6.72103139	    129.47138959	     98.64562904	     39.36944749	    -20.58363074	      3.35577649	    131.13183548	     92.94702508
      3.23000000	    -22.90695079	     -2.54554242	     -1.50429089	     -0.27097097	      0.77642972	     -0.57735598	     67.42928459	     -9.25492682	     -3.95658759	     67.61056985	      1.18002705	     23.26005250	     -7.13247030	     -7.49999987	     69.19633106	    -13.14890926	      1.84752706	     68.05546294	      1.18779190	     23.19211553	     -2.82128369	     -7.49999987	    -20.34999665	      2.09832534	     -1.57607074	     47.73429951	    -23.09260277	      6.67397319	    129.75832063	     98.66183430	     40.78029438	    -20.49848753	      3.42078492	    131.59870553	     92.94705532
      3.24000000	    -23.06279515	     -2.51649205	     -1.55964726	     -0.27361528	      0.76922931	     -0.57758853	     68.70024941	     -9.51539542	     -3.91685562	     69.08303311	      1.20572638	     23.49477980	     -7.17324559	     -7.49999987	     70.45265639	    -13.18313246	      2.06201546	     69.52818860	      1.21349581	     23.40371887	     -2.89373003	     -7.49999987	    -21.09738943	      2.13098564	     -1.34151871	     49.43187008	    -23.00249725	      6.37217199	    129.87990772	     98.65791230	     42.42235040	    -20.43101558	      3.21242959	    131.91892015	     92.96014122
      3.25000000	    -23.21893055	     -2.56063384	     -1.55173601	     -0.27585379	      0.76191059	     -0.57788641	     69.95366470	     -9.78218782	     -3.92681786	     70.66054489	      1.23325916	     23.81802484	     -7.18100700	     -7.49999987	     71.78515196	    -13.23935144	      2.30125632	     71.13306431	      1.24150618	     23.71829183	     -2.98687943	     -7.49999987	    -21.74432043	      2.23786379	     -1.17307481	     50.87830139	    -23.03220453	      6.20272624	    130.05557184	     98.66489120	     43.80584184	    -20.36746062	      3.15261572	    132.31017948	     92.98776367
      3.26000000	    -23.75266822	     -2.89638446	     -1.49819359	     -0.27778185	      0.75399032	     -0.57834201	     71.42675954	     -9.97211541	     -4.26627805	     72.13765006	      1.25903951	     24.77932117	     -6.51137974	     -7.49999987	     73.61890471	    -13.33368719	      2.91259182	     72.79427512	      1.27049978	     24.62040687	     -2.77586926	     -7.49999987	    -21.86652143	      2.70172327	     -0.91599702	     52.01706170	    -23.49062741	      6.46130652	    130.44470286	     98.70262527	     44.76339058	    -20.26164569	      3.49873327	    132.92273273	     93.02293820
      3.27000000	    -23.99927768	     -3.17032350	     -1.53798946	     -0.27962117	      0.74682216	     -0.57868622	     72.56190137	    -10.07407058	     -4.46528085	     73.48388067	      1.28253566	     25.65448061	     -5.55889741	     -7.49999987	     75.04523024	    -13.50055386	      3.43006557	     74.34432515	      1.29755325	     25.32226238	     -2.18057764	     -7.49999987	    -22.32439005	      3.07360639	     -0.57028486	     53.29025877	    -23.63508848	      6.35777243	    130.62549272	     98.69195077	     45.91558739	    -19.93674858	      3.43341270	    133.24491930	     92.98086568
      3.28000000	    -24.18099384	     -3.27659661	     -1.57227564	     -0.28128589	      0.74000268	     -0.57905561	     73.67517979	    -10.22472732	     -4.46725429	     74.82297885	      1.30590734	     25.98898922	     -5.47103427	     -7.49999987	     76.29348332	    -13.54776485	      3.76353375	     75.77941625	      1.32260032	     25.68533595	     -2.20836883	     -7.49999987	    -22.82773552	      3.22163851	     -0.36404419	     54.43696737	    -23.68085688	      6.21687634	    130.72507862	     98.68421293	     47.00052673	    -19.71177347	      3.38556856	    133.65513400	     93.00259773
